#!OML:ASF H:\ColoradoDance\Project 1\Capture day 1\Session 8\male.ASF
:FULLY-SPECIFIED
:DEGREES
1
upperback -3.988710 0.156352 -0.570808
rfoot -18.952400 -10.417300
lradius 27.675800
lthumb 1.671200 53.448502
rradius 22.283600
lwrist -10.783000
rhand -33.926201 -3.029200
rhumerus -41.862801 -10.007400 -81.582100
lowerneck -8.243180 -1.003260 2.712990
lhand -24.834700 23.475300
ltibia 30.731501
head 4.062310 -0.733629 -1.071800
rwrist 11.590400
lfingers 7.125020
rtoes -2.713180
lowerback -2.413910 0.072697 0.300808
rfingers 7.125020
lclavicle -0.000000 -0.000000
upperneck 7.968450 -1.524350 -1.477500
rfemur -15.677100 7.664650 21.875799
thorax -2.739120 0.091680 -0.756102
rclavicle -0.000000 -0.000000
rtibia 33.322800
lfoot -18.058901 4.512700
lhumerus -41.106998 6.965600 77.521004
rthumb -7.108290 -32.889801
root 6.607480 19.391300 -5.119340 -80.624100 88.720802 -86.181198
ltoes 3.372320
lfemur -14.233900 -6.867050 -18.228701
2
upperback -3.864350 0.261147 -0.430787
rfoot -18.693899 -10.240900
lradius 27.500700
lthumb 0.977281 54.257301
rradius 23.914700
lwrist -10.779500
rhand -35.795799 -4.037620
rhumerus -39.081001 -8.744880 -83.218399
lowerneck -8.064700 -0.902791 2.911740
lhand -25.553200 24.279800
ltibia 30.733500
head 3.984730 -0.670955 -1.126710
rwrist 9.252690
lfingers 7.125020
rtoes -2.603310
lowerback -2.445860 0.154221 0.660625
rfingers 7.125020
lclavicle -0.000000 0.000000
upperneck 7.844870 -1.400160 -1.568020
rfemur -16.129700 8.166580 21.920601
thorax -2.590440 0.135184 -0.813184
rclavicle -0.000000 0.000000
rtibia 33.146500
lfoot -18.022699 4.405280
lhumerus -40.195702 7.070050 77.026199
rthumb -8.912740 -33.829399
root 6.582930 19.403400 -5.169430 -58.931000 88.265198 -64.838203
ltoes 3.633830
lfemur -14.658800 -6.160990 -18.044500
3
upperback -3.875940 0.409381 -0.428995
rfoot -18.725201 -9.885980
lradius 24.537300
lthumb 1.473960 54.136700
rradius 24.760000
lwrist -12.972200
rhand -34.962299 -3.407270
rhumerus -39.045502 -7.388860 -85.735298
lowerneck -7.509000 -0.858899 2.998340
lhand -25.038900 24.162001
ltibia 30.662500
head 3.719300 -0.639096 -1.110740
rwrist 8.387250
lfingers 7.125020
rtoes -2.837580
lowerback -2.561950 0.265313 0.710075
rfingers 7.125020
lclavicle -0.000000 -0.000000
upperneck 7.402910 -1.340310 -1.521910
rfemur -16.423201 8.034640 21.631399
thorax -2.534200 0.208641 -0.838131
rclavicle -0.000000 -0.000000
rtibia 33.157299
lfoot -18.075100 4.445690
lhumerus -40.682400 8.281050 76.855797
rthumb -8.108370 -33.231701
root 6.616890 19.405701 -5.204500 -49.347698 88.206497 -55.587299
ltoes 3.811560
lfemur -14.849900 -5.932070 -18.276400
4
upperback -3.862560 0.498303 -0.346772
rfoot -18.804701 -10.066100
lradius 24.628599
lthumb 1.814250 53.785599
rradius 22.646299
lwrist -13.199200
rhand -34.398399 -2.871510
rhumerus -39.929199 -8.933460 -84.386497
lowerneck -6.923720 -0.880325 2.907900
lhand -24.686600 23.813601
ltibia 30.662800
head 3.465190 -0.644868 -1.089560
rwrist 10.232700
lfingers 7.125020
rtoes -3.047700
lowerback -2.772920 0.330981 0.700419
rfingers 7.125020
lclavicle 0.000000 0.000000
upperneck 7.004940 -1.341110 -1.543300
rfemur -16.541300 8.094510 21.618000
thorax -2.401030 0.255739 -0.746324
rclavicle 0.000000 0.000000
rtibia 33.071602
lfoot -18.188000 4.520160
lhumerus -41.705799 8.392990 77.714699
rthumb -7.564080 -32.716301
root 6.673790 19.408100 -5.217980 -52.323299 88.225998 -58.888199
ltoes 3.749850
lfemur -15.032200 -6.036730 -18.264601
5
upperback -3.942220 0.374400 -0.376064
rfoot -18.947901 -10.152600
lradius 24.949200
lthumb 1.679120 53.560200
rradius 22.390600
lwrist -13.180600
rhand -34.189999 -3.294800
rhumerus -40.803299 -9.368170 -82.994003
lowerneck -6.330570 -0.867469 2.769950
lhand -24.826500 23.587000
ltibia 30.739401
head 3.322350 -0.622204 -1.052320
rwrist 11.443700
lfingers 7.125020
rtoes -2.906890
lowerback -2.802790 0.236761 0.726620
rfingers 7.125020
lclavicle -0.000000 0.000000
upperneck 6.920840 -1.291710 -1.537250
rfemur -16.355900 8.174180 21.811701
thorax -2.468530 0.193203 -0.792109
rclavicle -0.000000 0.000000
rtibia 33.021999
lfoot -18.349100 4.456880
lhumerus -41.600300 8.303190 77.290604
rthumb -7.362990 -33.146702
root 6.719710 19.403601 -5.197810 -54.600899 88.170601 -61.175201
ltoes 3.838000
lfemur -14.924200 -6.052290 -18.111700
